<svg width="20" height="20" viewBox="0 0 20 20" fill="none" xmlns="http://www.w3.org/2000/svg">
<path d="M14.18 10.0781C14.18 7.63683 12.9106 6.36683 10.4688 6.36683C12.91 6.36683 14.18 5.11683 14.18 2.67558C14.18 5.11683 15.43 6.36683 17.8713 6.36683C15.43 6.36683 14.18 7.6362 14.18 10.0781ZM8.61312 3.8087C8.61312 8.24245 10.9375 10.5668 15.3713 10.5668C10.9375 10.5668 8.61312 12.8912 8.61312 17.325C8.61312 12.8912 6.30813 10.5668 1.875 10.5668C6.30875 10.5668 8.61312 8.24245 8.61312 3.8087ZM13.4963 13.1443C13.4963 14.2968 14.1019 14.9218 15.2544 14.9218H15.2738C14.1019 14.9218 13.4963 15.5275 13.4963 16.68C13.4963 15.5275 12.8906 14.9218 11.7381 14.9218C12.8906 14.9218 13.4963 14.2968 13.4963 13.1443Z" fill="white"/>
</svg>
