<svg width="16" height="16" viewBox="0 0 16 16" fill="none" xmlns="http://www.w3.org/2000/svg">
<g clip-path="url(#clip0_1_269)">
<path d="M3.6 6.4C3.68533 6.4 3.76 6.432 3.824 6.496L5.104 7.776C5.15733 7.82934 5.184 7.89867 5.184 7.984C5.184 8.06934 5.15733 8.144 5.104 8.208L3.824 9.488C3.76 9.552 3.68266 9.584 3.592 9.584C3.50133 9.584 3.424 9.552 3.36 9.488L2.096 8.224C2.032 8.16 2 8.08267 2 7.992C2 7.90134 2.032 7.824 2.096 7.76L3.36 6.496C3.424 6.432 3.504 6.4 3.6 6.4ZM3.6 5.072C3.376 5.072 3.16266 5.112 2.96 5.192C2.75733 5.272 2.576 5.392 2.416 5.552L1.152 6.816C0.831997 7.14667 0.671997 7.53867 0.671997 7.992C0.671997 8.44534 0.831997 8.83734 1.152 9.168L2.416 10.432C2.74666 10.752 3.13866 10.912 3.592 10.912C4.04533 10.912 4.43733 10.752 4.768 10.432L6.048 9.152C6.26133 8.93867 6.40266 8.69334 6.472 8.416C6.54133 8.13867 6.54133 7.85867 6.472 7.576C6.40266 7.29334 6.26133 7.04534 6.048 6.832L4.768 5.552C4.43733 5.232 4.048 5.072 3.6 5.072ZM8.016 10.832C8.10133 10.832 8.176 10.864 8.24 10.928L9.52 12.208C9.584 12.2613 9.616 12.3307 9.616 12.416C9.616 12.5013 9.584 12.576 9.52 12.64L8.24 13.92C8.176 13.9733 8.10133 14 8.016 14C7.93066 14 7.86133 13.9733 7.808 13.92L6.528 12.64C6.464 12.576 6.432 12.5013 6.432 12.416C6.432 12.3307 6.464 12.2613 6.528 12.208L7.792 10.928C7.856 10.864 7.93066 10.832 8.016 10.832ZM8.016 9.488C7.568 9.488 7.184 9.648 6.864 9.968L5.584 11.248C5.37066 11.4613 5.22666 11.7093 5.152 11.992C5.07733 12.2747 5.07733 12.5573 5.152 12.84C5.22666 13.1227 5.37066 13.3653 5.584 13.568L6.864 14.848C7.184 15.168 7.57066 15.328 8.024 15.328C8.47733 15.328 8.864 15.168 9.184 14.848L10.464 13.568C10.6667 13.3653 10.8053 13.1227 10.88 12.84C10.9547 12.5573 10.9547 12.2747 10.88 11.992C10.8053 11.7093 10.6667 11.4613 10.464 11.248L9.184 9.968C9.024 9.81867 8.84533 9.70134 8.648 9.616C8.45066 9.53067 8.24 9.488 8.016 9.488ZM7.984 2C8.08 2 8.15466 2.032 8.208 2.096L9.504 3.392C9.55733 3.44534 9.584 3.51467 9.584 3.6C9.584 3.68534 9.55733 3.76 9.504 3.824L8.208 5.12C8.144 5.17334 8.06933 5.2 7.984 5.2C7.89866 5.2 7.824 5.17334 7.76 5.12L6.48 3.824C6.416 3.76 6.384 3.68534 6.384 3.6C6.384 3.51467 6.416 3.44534 6.48 3.392L7.76 2.096C7.824 2.032 7.89866 2 7.984 2ZM7.984 0.672002C7.536 0.672002 7.152 0.832003 6.832 1.152L5.536 2.432C5.376 2.592 5.256 2.77334 5.176 2.976C5.096 3.17867 5.056 3.38667 5.056 3.6C5.056 4.05867 5.216 4.448 5.536 4.768L6.832 6.048C7.152 6.368 7.53866 6.528 7.992 6.528C8.44533 6.528 8.832 6.368 9.152 6.048L10.448 4.752C10.7573 4.432 10.912 4.048 10.912 3.6C10.912 3.152 10.7573 2.768 10.448 2.448L9.152 1.152C8.992 0.992002 8.81333 0.872003 8.616 0.792003C8.41866 0.712002 8.208 0.672002 7.984 0.672002ZM12.4 6.432C12.4853 6.432 12.56 6.45867 12.624 6.512L13.92 7.808C13.9733 7.872 14 7.944 14 8.024C14 8.104 13.9733 8.176 13.92 8.24L12.624 9.52C12.56 9.584 12.4853 9.616 12.4 9.616C12.3147 9.616 12.2453 9.584 12.192 9.52L10.896 8.24C10.8427 8.176 10.816 8.104 10.816 8.024C10.816 7.944 10.8427 7.872 10.896 7.808L12.192 6.512C12.2453 6.45867 12.3147 6.432 12.4 6.432ZM12.4 5.088C11.952 5.088 11.568 5.248 11.248 5.568L9.968 6.864C9.808 7.01334 9.68533 7.18934 9.6 7.392C9.51466 7.59467 9.47733 7.80267 9.488 8.016C9.488 8.47467 9.648 8.864 9.968 9.184L11.248 10.464C11.568 10.784 11.952 10.944 12.4 10.944C12.848 10.944 13.2373 10.784 13.568 10.464L14.848 9.184C15.168 8.864 15.328 8.47734 15.328 8.024C15.328 7.57067 15.168 7.184 14.848 6.864L13.568 5.568C13.4187 5.41867 13.2427 5.30134 13.04 5.216C12.8373 5.13067 12.624 5.088 12.4 5.088Z" fill="#E2E2E2"/>
</g>
<defs>
<clipPath id="clip0_1_269">
<rect width="16" height="16" fill="white" transform="matrix(1 0 0 -1 0 16)"/>
</clipPath>
</defs>
</svg>
