<svg width="16" height="16" viewBox="0 0 16 16" fill="none" xmlns="http://www.w3.org/2000/svg">
<path d="M12.704 12.704C12.0747 13.344 11.352 13.832 10.536 14.168C9.72 14.504 8.86934 14.672 7.984 14.672C7.09867 14.672 6.24 14.496 5.408 14.144C5.23734 14.0693 5.11734 13.9467 5.048 13.776C4.97867 13.6053 4.98134 13.4347 5.056 13.264C5.13067 13.0933 5.25334 12.9733 5.424 12.904C5.59467 12.8347 5.76534 12.8373 5.936 12.912C6.59734 13.1893 7.28 13.328 7.984 13.328C8.688 13.328 9.368 13.1947 10.024 12.928C10.68 12.6613 11.264 12.272 11.776 11.76C12.4587 11.0773 12.9173 10.272 13.152 9.344C13.3867 8.448 13.3867 7.54666 13.152 6.64C12.9173 5.712 12.4587 4.90666 11.776 4.224C11.0933 3.54133 10.288 3.08266 9.36 2.848C8.45334 2.61333 7.54667 2.61333 6.64 2.848C5.712 3.08266 4.90667 3.54133 4.224 4.224C3.72267 4.72533 3.33867 5.30133 3.072 5.952C2.80534 6.60266 2.66934 7.27733 2.664 7.976C2.65867 8.67466 2.79467 9.35466 3.072 10.016C3.136 10.1867 3.13334 10.3547 3.064 10.52C2.99467 10.6853 2.87467 10.8027 2.704 10.872C2.53334 10.9413 2.36267 10.9413 2.192 10.872C2.02134 10.8027 1.89867 10.6827 1.824 10.512C1.49334 9.69066 1.33067 8.84266 1.336 7.968C1.34134 7.09333 1.512 6.25066 1.848 5.44C2.184 4.62933 2.66667 3.90933 3.296 3.28C4.14934 2.42666 5.15734 1.85066 6.32 1.552C7.44 1.25333 8.56534 1.25333 9.696 1.552C10.8587 1.85066 11.8667 2.42666 12.72 3.28C13.5733 4.13333 14.1493 5.14133 14.448 6.304C14.7467 7.424 14.7467 8.54933 14.448 9.68C14.1493 10.8427 13.5733 11.8507 12.72 12.704H12.704ZM5.328 8C5.328 7.52 5.448 7.07466 5.688 6.664C5.928 6.25333 6.25067 5.928 6.656 5.688C7.06134 5.448 7.50667 5.328 7.992 5.328C8.47734 5.328 8.92267 5.448 9.328 5.688C9.73334 5.928 10.056 6.25333 10.296 6.664C10.536 7.07466 10.656 7.52 10.656 8C10.656 8.48 10.536 8.92533 10.296 9.336C10.056 9.74666 9.73334 10.0693 9.328 10.304C8.92267 10.5387 8.47734 10.656 7.992 10.656C7.50667 10.656 7.06134 10.5387 6.656 10.304C6.25067 10.0693 5.928 9.74666 5.688 9.336C5.448 8.92533 5.328 8.48 5.328 8ZM6.656 8C6.656 8.36266 6.78667 8.67466 7.048 8.936C7.30934 9.19733 7.624 9.328 7.992 9.328C8.36 9.328 8.67467 9.19733 8.936 8.936C9.19734 8.67466 9.328 8.36266 9.328 8C9.328 7.63733 9.19734 7.32533 8.936 7.064C8.67467 6.80266 8.36 6.672 7.992 6.672C7.624 6.672 7.30934 6.80266 7.048 7.064C6.78667 7.32533 6.656 7.63733 6.656 8Z" fill="#009DE6"/>
</svg>
