<svg width="30" height="30" viewBox="0 0 16 16" fill="none" xmlns="http://www.w3.org/2000/svg">
<path d="M2.672 10.624C2.672 11.168 2.75734 11.6907 2.928 12.192C3.09867 12.6933 3.35467 13.1627 3.696 13.6C3.80267 13.7387 3.84534 13.8987 3.824 14.08C3.80267 14.2613 3.72 14.408 3.576 14.52C3.432 14.632 3.26934 14.6773 3.088 14.656C2.90667 14.6347 2.75734 14.5547 2.64 14.416C2.21334 13.872 1.89067 13.2747 1.672 12.624C1.45334 11.9733 1.344 11.3067 1.344 10.624C1.344 9.70668 1.53334 8.84001 1.912 8.02401C2.29067 7.20801 2.82134 6.50668 3.504 5.92001C4.18667 5.33335 4.96534 4.92268 5.84 4.68801C6.02134 4.63468 6.192 4.65601 6.352 4.75201C6.512 4.84801 6.616 4.98401 6.664 5.16001C6.712 5.33601 6.69067 5.50401 6.6 5.66401C6.50934 5.82401 6.37334 5.92535 6.192 5.96801C5.50934 6.16001 4.90134 6.48535 4.368 6.94401C3.83467 7.40268 3.41867 7.95201 3.12 8.59201C2.82134 9.23201 2.672 9.90935 2.672 10.624ZM13.584 12.272C13.1573 12.6027 12.6907 12.856 12.184 13.032C11.6773 13.208 11.152 13.296 10.608 13.296C9.89334 13.296 9.216 13.1467 8.576 12.848C7.936 12.5493 7.38667 12.1307 6.928 11.592C6.46934 11.0533 6.14934 10.4373 5.968 9.74401C5.91467 9.56268 5.808 9.42668 5.648 9.33601C5.488 9.24535 5.32 9.22401 5.144 9.27201C4.968 9.32001 4.83467 9.42401 4.744 9.58401C4.65334 9.74401 4.62934 9.91468 4.672 10.096C4.91734 10.9813 5.33334 11.7653 5.92 12.448C6.50667 13.1307 7.208 13.664 8.024 14.048C8.84 14.432 9.70134 14.6293 10.608 14.64C11.312 14.64 11.9867 14.528 12.632 14.304C13.2773 14.08 13.872 13.7547 14.416 13.328C14.5547 13.2107 14.6347 13.0613 14.656 12.88C14.6773 12.6987 14.632 12.536 14.52 12.392C14.408 12.248 14.2613 12.1653 14.08 12.144C13.8987 12.1227 13.7387 12.1653 13.6 12.272H13.584ZM9.808 10.032C9.648 10.0747 9.52267 10.1653 9.432 10.304C9.34134 10.4427 9.30667 10.5947 9.328 10.76C9.34934 10.9253 9.424 11.064 9.552 11.176C9.68 11.288 9.824 11.344 9.984 11.344C10.048 11.344 10.1067 11.3333 10.16 11.312C11.0347 11.0773 11.8133 10.6667 12.496 10.08C13.1787 9.49335 13.712 8.79201 14.096 7.97601C14.48 7.16001 14.672 6.29335 14.672 5.37601C14.672 4.68268 14.56 4.01335 14.336 3.36801C14.112 2.72268 13.7867 2.12801 13.36 1.58401C13.2533 1.44534 13.1093 1.36535 12.928 1.34401C12.7467 1.32268 12.5813 1.36801 12.432 1.48001C12.2827 1.59201 12.1973 1.73868 12.176 1.92001C12.1547 2.10135 12.2027 2.26668 12.32 2.41601C12.6507 2.83201 12.904 3.29601 13.08 3.80801C13.256 4.32001 13.344 4.84268 13.344 5.37601C13.344 6.09068 13.1947 6.76801 12.896 7.40801C12.5973 8.04801 12.1813 8.59735 11.648 9.05601C11.1147 9.51468 10.5067 9.84001 9.824 10.032H9.808ZM2.416 3.72801C2.84267 3.39735 3.30934 3.14135 3.816 2.96001C4.32267 2.77868 4.848 2.69335 5.392 2.70401C6.10667 2.70401 6.784 2.85335 7.424 3.15201C8.064 3.45068 8.61334 3.86935 9.072 4.40801C9.53067 4.94668 9.856 5.56268 10.048 6.25601C10.08 6.40535 10.1573 6.52535 10.28 6.61601C10.4027 6.70668 10.5387 6.75201 10.688 6.75201C10.752 6.75201 10.8053 6.74135 10.848 6.72001C11.0293 6.67735 11.1653 6.57335 11.256 6.40801C11.3467 6.24268 11.3707 6.07468 11.328 5.90401C11.0827 5.01868 10.6693 4.23201 10.088 3.54401C9.50667 2.85601 8.80534 2.32001 7.984 1.93601C7.16267 1.55201 6.29867 1.36001 5.392 1.36001C4.69867 1.36001 4.02934 1.47201 3.384 1.69601C2.73867 1.92001 2.13867 2.24535 1.584 2.67201C1.44534 2.78935 1.36534 2.93868 1.344 3.12001C1.32267 3.30135 1.368 3.46401 1.48 3.60801C1.592 3.75201 1.73867 3.83468 1.92 3.85601C2.10134 3.87735 2.26667 3.82935 2.416 3.71201V3.72801Z" fill="#E2E2E2"/>
</svg>
