<svg width="16" height="16" viewBox="0 0 16 16" fill="none" xmlns="http://www.w3.org/2000/svg">
<path d="M10 14.672H12C12.48 14.672 12.9253 14.552 13.336 14.312C13.7467 14.072 14.072 13.7467 14.312 13.336C14.552 12.9253 14.672 12.48 14.672 12V4C14.672 3.52 14.552 3.07466 14.312 2.664C14.072 2.25333 13.7467 1.928 13.336 1.688C12.9253 1.448 12.48 1.328 12 1.328H10.672C10.48 1.328 10.32 1.39466 10.192 1.528C10.064 1.66133 10 1.81866 10 2C10 2.18133 10.064 2.33866 10.192 2.472C10.32 2.60533 10.48 2.672 10.672 2.672H12C12.3627 2.672 12.6747 2.80266 12.936 3.064C13.1973 3.32533 13.328 3.63733 13.328 4V12C13.328 12.3627 13.1973 12.6747 12.936 12.936C12.6747 13.1973 12.3627 13.328 12 13.328H10C9.63734 13.328 9.32534 13.1973 9.064 12.936C8.80267 12.6747 8.672 12.3627 8.672 12V4C8.672 3.52 8.552 3.07466 8.312 2.664C8.072 2.25333 7.74667 1.928 7.336 1.688C6.92534 1.448 6.48 1.328 6 1.328H4C3.52 1.328 3.07467 1.448 2.664 1.688C2.25334 1.928 1.928 2.25333 1.688 2.664C1.448 3.07466 1.328 3.52 1.328 4V12C1.328 12.48 1.448 12.9253 1.688 13.336C1.928 13.7467 2.25334 14.072 2.664 14.312C3.07467 14.552 3.52 14.672 4 14.672H5.328C5.52 14.672 5.68 14.6053 5.808 14.472C5.936 14.3387 6 14.1813 6 14C6 13.8187 5.936 13.6613 5.808 13.528C5.68 13.3947 5.52 13.328 5.328 13.328H4C3.63734 13.328 3.32534 13.1973 3.064 12.936C2.80267 12.6747 2.672 12.3627 2.672 12V4C2.672 3.63733 2.80267 3.32533 3.064 3.064C3.32534 2.80266 3.63734 2.672 4 2.672H6C6.36267 2.672 6.67467 2.80266 6.936 3.064C7.19734 3.32533 7.328 3.63733 7.328 4V12C7.328 12.48 7.448 12.9253 7.688 13.336C7.928 13.7467 8.25334 14.072 8.664 14.312C9.07467 14.552 9.52 14.672 10 14.672ZM6 4.992C6 5.26933 5.90134 5.50666 5.704 5.704C5.50667 5.90133 5.272 6 5 6C4.728 6 4.49334 5.90133 4.296 5.704C4.09867 5.50666 4 5.272 4 5C4 4.728 4.09867 4.49333 4.296 4.296C4.49334 4.09866 4.728 4 5 4C5.272 4 5.50667 4.09866 5.704 4.296C5.90134 4.49333 6 4.72533 6 4.992Z" fill="#E2E2E2"/>
</svg>
