<svg width="16" height="16" viewBox="0 0 16 16" fill="none" xmlns="http://www.w3.org/2000/svg">
<path d="M14.656 5.952C14.6453 5.92 14.64 5.888 14.64 5.856L14.624 5.808L14.576 5.664L14.496 5.568L14.448 5.52L14.352 5.44L8.32 2.08C8.21334 2.02667 8.104 2 7.992 2C7.88 2 7.77067 2.02667 7.664 2.08L1.664 5.424L1.568 5.504C1.536 5.51467 1.512 5.53067 1.496 5.552C1.48 5.57333 1.46134 5.6 1.44 5.632L1.424 5.648L1.376 5.776L1.344 5.952L1.328 13.328C1.328 13.456 1.36 13.5707 1.424 13.672C1.488 13.7733 1.57334 13.8533 1.68 13.912C1.78667 13.9707 1.89867 14 2.016 14C2.13334 14 2.24534 13.968 2.352 13.904L8.368 10.176L13.344 7.184V12.16L11.008 10.768C10.848 10.672 10.68 10.6453 10.504 10.688C10.328 10.7307 10.192 10.8293 10.096 10.984C10 11.1387 9.976 11.3067 10.024 11.488C10.072 11.6693 10.1707 11.808 10.32 11.904L13.664 13.904C13.76 13.968 13.8693 14 13.992 14C14.1147 14 14.2267 13.9707 14.328 13.912C14.4293 13.8533 14.512 13.7707 14.576 13.664C14.64 13.5573 14.672 13.4453 14.672 13.328V6L14.656 5.952ZM7.984 3.424L12.656 6.016L8 8.816L3.328 6.016L7.984 3.424ZM2.656 7.184L6.72 9.616L2.656 12.128V7.184Z" fill="#E2E2E2"/>
</svg>
