<svg width="16" height="16" viewBox="0 0 16 16" fill="none" xmlns="http://www.w3.org/2000/svg">
<path d="M6.8 0.672002H12.56C12.944 0.672002 13.296 0.765336 13.616 0.952003C13.936 1.13867 14.192 1.39467 14.384 1.72C14.576 2.04534 14.672 2.4 14.672 2.784V8.56C14.672 8.944 14.576 9.29867 14.384 9.624C14.192 9.94934 13.936 10.2053 13.616 10.392C13.296 10.5787 12.944 10.672 12.56 10.672H6.8C6.416 10.672 6.06134 10.5787 5.736 10.392C5.41067 10.2053 5.15467 9.94934 4.968 9.624C4.78134 9.29867 4.688 8.944 4.688 8.56C4.688 8.37867 4.752 8.22134 4.88 8.088C5.008 7.95467 5.16534 7.888 5.352 7.888C5.53867 7.888 5.696 7.95467 5.824 8.088C5.952 8.22134 6.016 8.37867 6.016 8.56C6.016 8.77334 6.09334 8.95734 6.248 9.112C6.40267 9.26667 6.58667 9.344 6.8 9.344H12.56C12.7733 9.344 12.9547 9.26667 13.104 9.112C13.2533 8.95734 13.328 8.77334 13.328 8.56V2.784C13.328 2.56 13.2533 2.37334 13.104 2.224C12.9547 2.07467 12.7733 2 12.56 2H6.8C6.58667 2 6.40267 2.07734 6.248 2.232C6.09334 2.38667 6.016 2.57067 6.016 2.784C6.016 2.96534 5.952 3.12 5.824 3.248C5.696 3.376 5.53867 3.44 5.352 3.44C5.16534 3.44 5.008 3.376 4.88 3.248C4.752 3.12 4.688 2.96534 4.688 2.784C4.688 2.4 4.78134 2.04534 4.968 1.72C5.15467 1.39467 5.41067 1.13867 5.736 0.952003C6.06134 0.765336 6.416 0.672002 6.8 0.672002ZM6.672 14C7.17334 14 7.66134 13.9067 8.136 13.72C8.61067 13.5333 9.02934 13.264 9.392 12.912V12.928C9.53067 12.8 9.69334 12.7387 9.88 12.744C10.0667 12.7493 10.2213 12.8213 10.344 12.96C10.4667 13.0987 10.5253 13.2587 10.52 13.44C10.5147 13.6213 10.4427 13.776 10.304 13.904C9.81334 14.3627 9.25334 14.7147 8.624 14.96C7.99467 15.2053 7.344 15.328 6.672 15.328C5.70134 15.328 4.80534 15.088 3.984 14.608C3.17334 14.1387 2.53334 13.4987 2.064 12.688C1.57334 11.856 1.328 10.96 1.328 10C1.328 9.04 1.57334 8.144 2.064 7.312C2.53334 6.512 3.17334 5.872 3.984 5.392C4.80534 4.912 5.70134 4.672 6.672 4.672C7.344 4.672 7.99467 4.79467 8.624 5.04C9.25334 5.28534 9.81334 5.63734 10.304 6.096C10.3893 6.18134 10.448 6.28 10.48 6.392C10.512 6.504 10.5147 6.61867 10.488 6.736C10.4613 6.85334 10.408 6.95467 10.328 7.04C10.248 7.12534 10.152 7.18667 10.04 7.224C9.928 7.26134 9.81334 7.26667 9.696 7.24C9.57867 7.21334 9.47734 7.15734 9.392 7.072C9.01867 6.73067 8.59734 6.46667 8.128 6.28C7.65867 6.09334 7.17334 6 6.672 6C5.94667 6 5.27734 6.17867 4.664 6.536C4.05067 6.89334 3.56534 7.37867 3.208 7.992C2.85067 8.60534 2.672 9.27467 2.672 10C2.672 10.7253 2.85067 11.3947 3.208 12.008C3.56534 12.6213 4.05067 13.1067 4.664 13.464C5.27734 13.8213 5.94667 14 6.672 14Z" fill="#E2E2E2"/>
</svg>
