<svg width="16" height="16" viewBox="0 0 16 16" fill="none" xmlns="http://www.w3.org/2000/svg">
<path d="M2 1.328C2.18134 1.328 2.33867 1.39466 2.472 1.528C2.60534 1.66133 2.672 1.81866 2.672 2V3.648C2.672 5.10933 2.944 6.512 3.488 7.856C4.02134 9.15733 4.768 10.32 5.728 11.344C5.856 11.4827 5.91734 11.6453 5.912 11.832C5.90667 12.0187 5.83467 12.1733 5.696 12.296C5.55734 12.4187 5.39734 12.4773 5.216 12.472C5.03467 12.4667 4.88 12.3947 4.752 12.256C3.67467 11.1147 2.84267 9.81866 2.256 8.368C1.648 6.864 1.33867 5.296 1.328 3.664V2C1.328 1.81866 1.39467 1.66133 1.528 1.528C1.66134 1.39466 1.81867 1.328 2 1.328ZM5.328 2.672H14C14.1813 2.672 14.3387 2.60533 14.472 2.472C14.6053 2.33866 14.672 2.18133 14.672 2C14.672 1.81866 14.6053 1.66133 14.472 1.528C14.3387 1.39466 14.1813 1.328 14 1.328H5.328C5.14667 1.328 4.98934 1.39466 4.856 1.528C4.72267 1.66133 4.656 1.81866 4.656 2C4.656 2.18133 4.72267 2.33866 4.856 2.472C4.98934 2.60533 5.14667 2.672 5.328 2.672ZM7.424 14.336C7.488 14.4427 7.57067 14.5253 7.672 14.584C7.77334 14.6427 7.88267 14.672 8 14.672V14.656C8.11734 14.656 8.224 14.6293 8.32 14.576C9.96267 13.6267 11.3227 12.3787 12.4 10.832C13.4773 9.28533 14.1707 7.57866 14.48 5.712C14.512 5.54133 14.4747 5.37866 14.368 5.224C14.2613 5.06933 14.1173 4.97866 13.936 4.952C13.7547 4.92533 13.5893 4.96533 13.44 5.072C13.2907 5.17866 13.2 5.32266 13.168 5.504C12.8907 7.168 12.272 8.69066 11.312 10.072C10.352 11.4533 9.136 12.5707 7.664 13.424C7.504 13.52 7.4 13.656 7.352 13.832C7.304 14.008 7.328 14.176 7.424 14.336ZM7.152 9.904C7.408 10.096 7.69334 10.192 8.008 10.192C8.32267 10.192 8.60267 10.0907 8.848 9.888C9.488 9.39733 10.0213 8.70933 10.448 7.824C10.8213 7.04533 11.0453 6.27733 11.12 5.52C11.152 5.22133 11.0667 4.96 10.864 4.736C10.6613 4.512 10.4053 4.4 10.096 4.4H5.888C5.6 4.4 5.35467 4.50933 5.152 4.728C4.94934 4.94666 4.85867 5.20533 4.88 5.504C4.944 6.368 5.18134 7.2 5.592 8C6.00267 8.8 6.52267 9.43466 7.152 9.904ZM7.952 8.832C7.52534 8.512 7.15467 8.072 6.84 7.512C6.52534 6.952 6.32534 6.35733 6.24 5.728H9.76C9.65334 6.304 9.456 6.864 9.168 7.408C8.83734 8.02666 8.45867 8.50666 8.032 8.848C8.02134 8.86933 7.99467 8.86933 7.952 8.848V8.832Z" fill="#E2E2E2"/>
</svg>
