<svg width="16" height="16" viewBox="0 0 16 16" fill="none" xmlns="http://www.w3.org/2000/svg">
<path d="M8 6C8 6.18133 8.064 6.33866 8.192 6.472C8.32 6.60533 8.47734 6.672 8.664 6.672C8.85067 6.672 9.008 6.60533 9.136 6.472C9.264 6.33866 9.328 6.18133 9.328 6V2C9.328 1.91466 9.312 1.82933 9.28 1.744C9.20534 1.57333 9.088 1.456 8.928 1.392C8.84267 1.34933 8.75734 1.328 8.672 1.328H4.672C4.48 1.328 4.32 1.39466 4.192 1.528C4.064 1.66133 4 1.81866 4 2C4 2.18133 4.064 2.33866 4.192 2.472C4.32 2.60533 4.48 2.672 4.672 2.672H7.056L1.52 8.192C1.392 8.32 1.328 8.47733 1.328 8.664C1.328 8.85066 1.39467 9.008 1.528 9.136C1.66134 9.264 1.81867 9.328 2 9.328C2.18134 9.328 2.34134 9.264 2.48 9.136L8 3.6V6ZM14.48 6.864C14.3413 6.736 14.1813 6.672 14 6.672C13.8187 6.672 13.664 6.736 13.536 6.864L8 12.4V10C8 9.81866 7.936 9.66133 7.808 9.528C7.68 9.39466 7.52534 9.328 7.344 9.328C7.16267 9.328 7.00534 9.39466 6.872 9.528C6.73867 9.66133 6.672 9.81866 6.672 10V14C6.672 14.0853 6.688 14.1707 6.72 14.256C6.79467 14.4267 6.91734 14.544 7.088 14.608C7.17334 14.6507 7.25867 14.672 7.344 14.672H11.344C11.5253 14.672 11.68 14.6053 11.808 14.472C11.936 14.3387 12 14.1813 12 14C12 13.8187 11.936 13.6613 11.808 13.528C11.68 13.3947 11.5253 13.328 11.344 13.328H8.944L14.48 7.808C14.608 7.68 14.672 7.52266 14.672 7.336C14.672 7.14933 14.608 6.992 14.48 6.864Z" fill="#E2E2E2"/>
</svg>
