<svg width="16" height="16" viewBox="0 0 16 16" fill="none" xmlns="http://www.w3.org/2000/svg">
<path d="M3.33333 6.00001C3.33304 5.86803 3.37197 5.73894 3.44517 5.62913C3.51837 5.51931 3.62255 5.43372 3.74448 5.38322C3.86641 5.33272 4.0006 5.31959 4.13001 5.34548C4.25942 5.37138 4.37822 5.43514 4.47133 5.52867L8 9.05734L11.5287 5.52867C11.6537 5.40367 11.8232 5.33344 12 5.33344C12.0875 5.33344 12.1742 5.35068 12.2551 5.38418C12.336 5.41768 12.4094 5.46678 12.4713 5.52867C12.5332 5.59057 12.5823 5.66405 12.6158 5.74492C12.6493 5.82579 12.6666 5.91247 12.6666 6.00001C12.6666 6.17679 12.5963 6.34633 12.4713 6.47134L8.47133 10.4713C8.40947 10.5333 8.336 10.5825 8.25513 10.616C8.17425 10.6495 8.08755 10.6668 8 10.6668C7.91244 10.6668 7.82575 10.6495 7.74487 10.616C7.66399 10.5825 7.59052 10.5333 7.52867 10.4713L3.52866 6.47134C3.46667 6.40951 3.41749 6.33605 3.38397 6.25516C3.35045 6.17428 3.33324 6.08756 3.33333 6.00001Z" fill="#009DE6"/>
</svg>
