<svg width="16" height="16" viewBox="0 0 16 16" fill="none" xmlns="http://www.w3.org/2000/svg">
<path d="M5.99999 12.6667C5.86801 12.667 5.73893 12.628 5.62911 12.5548C5.5193 12.4816 5.43371 12.3774 5.38321 12.2555C5.33271 12.1336 5.31957 11.9994 5.34547 11.87C5.37136 11.7406 5.43512 11.6218 5.52866 11.5287L9.05732 8L5.52866 4.47133C5.40365 4.34633 5.33342 4.17679 5.33342 4C5.33342 3.91247 5.35067 3.82579 5.38416 3.74492C5.41766 3.66405 5.46676 3.59056 5.52866 3.52867C5.59055 3.46677 5.66404 3.41767 5.74491 3.38417C5.82578 3.35068 5.91246 3.33344 5.99999 3.33344C6.17678 3.33344 6.34632 3.40366 6.47132 3.52867L10.4713 7.52867C10.5333 7.59053 10.5824 7.664 10.616 7.74487C10.6495 7.82575 10.6668 7.91245 10.6668 8C10.6668 8.08756 10.6495 8.17425 10.616 8.25513C10.5824 8.33601 10.5333 8.40948 10.4713 8.47133L6.47132 12.4713C6.4095 12.5333 6.33603 12.5825 6.25515 12.616C6.17426 12.6495 6.08755 12.6668 5.99999 12.6667Z" fill="#009DE6"/>
</svg>
