<svg width="18" height="18" viewBox="0 0 18 18" fill="none" xmlns="http://www.w3.org/2000/svg">
<path d="M8.99988 11.25C10.2425 11.25 11.2499 10.2426 11.2499 8.99998C11.2499 7.75734 10.2425 6.74998 8.99988 6.74998C7.75724 6.74998 6.74988 7.75734 6.74988 8.99998C6.74988 10.2426 7.75724 11.25 8.99988 11.25Z" stroke="white" stroke-width="1.125"/>
<path d="M10.324 1.61416C10.0483 1.49998 9.69892 1.49998 9 1.49998C8.30107 1.49998 7.95165 1.49998 7.67595 1.61416C7.30843 1.7664 7.01641 2.05841 6.86417 2.42595C6.79468 2.59373 6.76747 2.78885 6.75683 3.07347C6.74119 3.49174 6.52669 3.87889 6.1642 4.08817C5.80173 4.29745 5.35919 4.28963 4.98914 4.09405C4.73734 3.96095 4.55476 3.88694 4.3747 3.86324C3.98028 3.81131 3.58138 3.91819 3.26577 4.16038C3.02905 4.34201 2.85433 4.64465 2.50487 5.24992C2.15542 5.8552 1.98069 6.15784 1.94174 6.45366C1.88982 6.84808 1.9967 7.24697 2.23888 7.5626C2.34942 7.70668 2.50477 7.82773 2.74589 7.97923C3.10035 8.20198 3.32842 8.5814 3.32839 8.99998C3.32837 9.41855 3.10031 9.7979 2.74588 10.0206C2.50474 10.1722 2.34936 10.2933 2.23881 10.4374C1.99663 10.753 1.88974 11.1518 1.94167 11.5462C1.98061 11.842 2.15534 12.1447 2.5048 12.75C2.85426 13.3552 3.02899 13.6579 3.26569 13.8395C3.58131 14.0817 3.9802 14.1886 4.37463 14.1367C4.55467 14.113 4.73724 14.0389 4.98903 13.9059C5.3591 13.7103 5.80167 13.7025 6.16417 13.9117C6.52668 14.1211 6.74119 14.5082 6.75683 14.9266C6.76748 15.2111 6.79468 15.4063 6.86417 15.574C7.01641 15.9415 7.30843 16.2336 7.67595 16.3858C7.95165 16.5 8.30107 16.5 9 16.5C9.69892 16.5 10.0483 16.5 10.324 16.3858C10.6915 16.2336 10.9836 15.9415 11.1358 15.574C11.2053 15.4063 11.2325 15.2111 11.2432 14.9265C11.2588 14.5082 11.4733 14.1211 11.8357 13.9117C12.1982 13.7024 12.6408 13.7103 13.0109 13.9059C13.2627 14.0389 13.4452 14.1129 13.6252 14.1366C14.0197 14.1886 14.4186 14.0817 14.7342 13.8395C14.9709 13.6579 15.1456 13.3552 15.4951 12.7499C15.8446 12.1447 16.0193 11.842 16.0582 11.5462C16.1101 11.1518 16.0033 10.7529 15.7611 10.4373C15.6505 10.2932 15.4951 10.1721 15.254 10.0206C14.8996 9.7979 14.6716 9.41848 14.6716 8.9999C14.6716 8.58133 14.8996 8.20205 15.254 7.97938C15.4952 7.8278 15.6506 7.70675 15.7612 7.5626C16.0033 7.24702 16.1102 6.84813 16.0583 6.4537C16.0194 6.15789 15.8446 5.85525 15.4951 5.24998C15.1457 4.6447 14.971 4.34206 14.7343 4.16043C14.4187 3.91825 14.0197 3.81136 13.6253 3.86329C13.4453 3.88699 13.2628 3.961 13.0109 4.09408C12.6409 4.28967 12.1983 4.29749 11.8358 4.0882C11.4733 3.87891 11.2588 3.49172 11.2432 3.07343C11.2325 2.78884 11.2053 2.59372 11.1358 2.42595C10.9836 2.05841 10.6915 1.7664 10.324 1.61416Z" stroke="#C2C9D6" stroke-width="1.125"/>
</svg>
