<svg width="24" height="24" viewBox="0 0 24 24" fill="none" xmlns="http://www.w3.org/2000/svg">
<path d="M11.75 3.412C11.8316 3.55425 11.8686 3.71775 11.8561 3.88127C11.8436 4.04479 11.7822 4.20078 11.68 4.329C10.774 5.45421 10.28 6.85539 10.28 8.3C10.28 11.864 13.26 14.794 16.986 14.794C17.9713 14.7958 18.9454 14.5854 19.842 14.177C19.9906 14.109 20.1561 14.0871 20.3173 14.1141C20.4785 14.1411 20.6278 14.2157 20.7462 14.3284C20.8646 14.441 20.9465 14.5865 20.9814 14.7462C21.0163 14.9058 21.0025 15.0722 20.942 15.224C19.593 18.614 16.218 21 12.283 21C7.18 21 3 16.973 3 11.956C3 7.393 6.46 3.646 10.925 3.008C11.0873 2.9848 11.2528 3.01092 11.4001 3.08296C11.5474 3.15499 11.6697 3.26963 11.751 3.412H11.75Z" fill="#E8C417"/>
</svg>
