<svg width="20" height="20" viewBox="0 0 20 20" fill="none" xmlns="http://www.w3.org/2000/svg">
<path d="M12.8125 14.63H7.1875V15.5558C7.18796 15.9215 7.26105 16.2834 7.40253 16.6206C7.54401 16.9578 7.75106 17.2635 8.01167 17.52C8.54183 18.0418 9.2561 18.334 10 18.3333C10.7439 18.334 11.4582 18.0418 11.9883 17.52C12.5158 16.9992 12.8125 16.2925 12.8125 15.555V14.63ZM12.8125 14.63H17.5L16.1833 13.3283C16.0072 13.1544 15.8672 12.9473 15.7714 12.7191C15.6756 12.4908 15.6258 12.2459 15.625 11.9983V9.07333C15.6246 7.92239 15.2639 6.80045 14.5933 5.865C13.9181 4.92415 12.9687 4.21487 11.875 3.83417V3.51834C11.875 3.02667 11.6775 2.55667 11.3258 2.20917C10.9723 1.86114 10.4961 1.66625 10 1.66667C9.5025 1.66667 9.02583 1.86167 8.67417 2.20834C8.50039 2.37941 8.36235 2.58331 8.26807 2.80821C8.1738 3.0331 8.12516 3.27448 8.125 3.51834V3.835C5.94083 4.5975 4.375 6.65584 4.375 9.07417V11.9992C4.375 12.4975 4.175 12.9758 3.81667 13.3283L2.5 14.63H12.8125Z" stroke="#C2C9D6" stroke-width="1.25" stroke-linecap="round" stroke-linejoin="round"/>
</svg>
