<svg width="22" height="22" viewBox="0 0 22 22" fill="none" xmlns="http://www.w3.org/2000/svg">
<path d="M3.66663 5.5C3.66663 5.01377 3.85978 4.54746 4.2036 4.20364C4.54741 3.85982 5.01373 3.66667 5.49996 3.66667H7.33329C7.81952 3.66667 8.28584 3.85982 8.62965 4.20364C8.97347 4.54746 9.16663 5.01377 9.16663 5.5V7.33333C9.16663 7.81956 8.97347 8.28588 8.62965 8.6297C8.28584 8.97351 7.81952 9.16667 7.33329 9.16667H5.49996C5.01373 9.16667 4.54741 8.97351 4.2036 8.6297C3.85978 8.28588 3.66663 7.81956 3.66663 7.33333V5.5ZM12.8333 5.5C12.8333 5.01377 13.0264 4.54746 13.3703 4.20364C13.7141 3.85982 14.1804 3.66667 14.6666 3.66667H16.5C16.9862 3.66667 17.4525 3.85982 17.7963 4.20364C18.1401 4.54746 18.3333 5.01377 18.3333 5.5V7.33333C18.3333 7.81956 18.1401 8.28588 17.7963 8.6297C17.4525 8.97351 16.9862 9.16667 16.5 9.16667H14.6666C14.1804 9.16667 13.7141 8.97351 13.3703 8.6297C13.0264 8.28588 12.8333 7.81956 12.8333 7.33333V5.5ZM3.66663 14.6667C3.66663 14.1804 3.85978 13.7141 4.2036 13.3703C4.54741 13.0265 5.01373 12.8333 5.49996 12.8333H7.33329C7.81952 12.8333 8.28584 13.0265 8.62965 13.3703C8.97347 13.7141 9.16663 14.1804 9.16663 14.6667V16.5C9.16663 16.9862 8.97347 17.4525 8.62965 17.7964C8.28584 18.1402 7.81952 18.3333 7.33329 18.3333H5.49996C5.01373 18.3333 4.54741 18.1402 4.2036 17.7964C3.85978 17.4525 3.66663 16.9862 3.66663 16.5V14.6667ZM12.8333 14.6667C12.8333 14.1804 13.0264 13.7141 13.3703 13.3703C13.7141 13.0265 14.1804 12.8333 14.6666 12.8333H16.5C16.9862 12.8333 17.4525 13.0265 17.7963 13.3703C18.1401 13.7141 18.3333 14.1804 18.3333 14.6667V16.5C18.3333 16.9862 18.1401 17.4525 17.7963 17.7964C17.4525 18.1402 16.9862 18.3333 16.5 18.3333H14.6666C14.1804 18.3333 13.7141 18.1402 13.3703 17.7964C13.0264 17.4525 12.8333 16.9862 12.8333 16.5V14.6667Z" stroke="#C2C9D6" stroke-width="1.375" stroke-linecap="round" stroke-linejoin="round"/>
</svg>
