<svg width="44" height="30" viewBox="0 0 44 30" fill="none" xmlns="http://www.w3.org/2000/svg">
<g filter="url(#filter0_i_0_11)">
<path fill-rule="evenodd" clip-rule="evenodd" d="M37.8997 3.2103C39.5565 2.13081 43.8639 0.0645345 44 0C41.2579 0.813135 38.9158 1.53592 36.6947 2.36666C35.9789 2.63301 35.2843 2.90992 34.6225 3.20795C31.952 4.39773 29.6945 5.8832 27.8265 8.0938C27.8265 8.0938 27.1354 8.94566 26.8127 9.41265C26.6461 9.6485 26.4935 9.88669 26.3375 10.1354C25.1677 12.0081 24.1856 14.3032 23.3771 17.1756C23.2591 17.5934 23.1335 18.0838 23.0011 18.6005C22.6995 19.7779 22.3628 21.0925 22 21.9994C21.6696 21.1733 21.4049 20.009 21.157 18.9181C21.0133 18.2859 20.8752 17.6783 20.7332 17.1756C19.9247 14.3032 18.9426 12.0081 17.7728 10.1354C17.6179 9.88669 17.4654 9.6485 17.2976 9.41265C16.9761 8.94566 16.2838 8.0938 16.2838 8.0938C14.417 5.8832 12.1595 4.39774 9.48892 3.20795C8.82598 2.90992 8.13135 2.63301 7.41678 2.36666C5.24613 1.55482 2.85472 0.846066 0.186701 0.0553376C0.124618 0.0369377 0.062384 0.0184933 0 2.24272e-06C0.00538158 0.00255385 0.0174584 0.00823479 0.035795 0.0168604C0.481222 0.22639 4.62047 2.1735 6.21174 3.2103C6.63297 3.48487 7.03544 3.76412 7.41678 4.0516C8.54437 4.90697 9.51825 5.8304 10.3889 6.89698C12.4786 9.44081 13.9911 12.7943 15.7476 17.9019C16.6099 20.7986 17.938 23.5816 19.6263 26.1042C19.6261 26.1044 19.626 26.1046 19.6259 26.1048C19.6381 26.1246 19.6519 26.1451 19.6653 26.1652C19.6686 26.1701 19.6719 26.175 19.6752 26.1799C19.9392 26.5777 21.9996 29.3327 21.9996 29.3327C21.9996 29.3327 21.9998 29.3325 22.0001 29.332C22.004 29.3372 22.0041 29.3376 22.0004 29.3327C22.0004 29.3327 24.1652 26.5859 24.4363 26.1799L24.4856 26.106C24.4854 26.1058 24.4853 26.1055 24.4852 26.1053C26.1734 23.5828 27.5015 20.7986 28.3639 17.9019C30.1192 12.7943 31.6317 9.44081 33.7226 6.89698C34.5932 5.8304 35.5659 4.90697 36.6947 4.05159C37.076 3.76412 37.4773 3.48486 37.8997 3.2103Z" fill="url(#paint0_linear_0_11)"/>
</g>
<defs>
<filter id="filter0_i_0_11" x="0" y="0" width="44" height="29.8055" filterUnits="userSpaceOnUse" color-interpolation-filters="sRGB">
<feFlood flood-opacity="0" result="BackgroundImageFix"/>
<feBlend mode="normal" in="SourceGraphic" in2="BackgroundImageFix" result="shape"/>
<feColorMatrix in="SourceAlpha" type="matrix" values="0 0 0 0 0 0 0 0 0 0 0 0 0 0 0 0 0 0 127 0" result="hardAlpha"/>
<feOffset dy="0.469333"/>
<feGaussianBlur stdDeviation="0.234667"/>
<feComposite in2="hardAlpha" operator="arithmetic" k2="-1" k3="1"/>
<feColorMatrix type="matrix" values="0 0 0 0 1 0 0 0 0 1 0 0 0 0 1 0 0 0 0.25 0"/>
<feBlend mode="normal" in2="shape" result="effect1_innerShadow_0_11"/>
</filter>
<linearGradient id="paint0_linear_0_11" x1="-3.14625" y1="-12.2171" x2="19.1635" y2="34.2612" gradientUnits="userSpaceOnUse">
<stop stop-color="#9ED6FF"/>
<stop offset="1" stop-color="#0085FF"/>
</linearGradient>
</defs>
</svg>
