<svg width="15" height="15" viewBox="0 0 15 15" fill="none" xmlns="http://www.w3.org/2000/svg">
<g filter="url(#filter0_i_0_10)">
<g clip-path="url(#paint0_diamond_0_10_clip_path)" data-figma-skip-parse="true"><g transform="matrix(0 0.0243396 -0.0250007 0 7.52873 0.425081)"><rect x="0" y="0" width="611.204" height="313.203" fill="url(#paint0_diamond_0_10)" opacity="1" shape-rendering="crispEdges"/><rect x="0" y="0" width="611.204" height="313.203" transform="scale(1 -1)" fill="url(#paint0_diamond_0_10)" opacity="1" shape-rendering="crispEdges"/><rect x="0" y="0" width="611.204" height="313.203" transform="scale(-1 1)" fill="url(#paint0_diamond_0_10)" opacity="1" shape-rendering="crispEdges"/><rect x="0" y="0" width="611.204" height="313.203" transform="scale(-1)" fill="url(#paint0_diamond_0_10)" opacity="1" shape-rendering="crispEdges"/></g></g><path d="M15 7.5C13.4181 7.99512 12.0221 8.64062 10.9142 9.55953C10.7063 9.73156 10.5035 9.91408 10.3134 10.1071C10.2145 10.2036 10.1233 10.3043 10.032 10.4071C9.3399 11.1854 8.75935 12.1358 8.28022 13.3296C8.05205 13.8981 7.80929 14.4587 7.5 15C7.18818 14.4566 6.88843 13.8981 6.66027 13.3296C6.18113 12.1358 5.59805 11.1854 4.90849 10.4071C4.81723 10.3043 4.72596 10.2036 4.62709 10.1071C4.43696 9.91408 4.23668 9.73156 4.02627 9.55953C2.92095 8.64062 1.58446 7.99512 0 7.5C1.58192 7.00488 2.91842 6.42099 4.02627 5.49999C4.23415 5.32795 4.43696 5.14543 4.62709 4.95242C4.72596 4.85591 4.81723 4.75521 4.90849 4.65241C5.60058 3.87407 6.18113 2.9237 6.66027 1.73206C6.88843 1.16352 7.18818 0.54337 7.5 0C7.80929 0.545468 8.05205 1.16352 8.28022 1.73206C8.75935 2.9258 9.34244 3.87617 10.032 4.65241C10.1233 4.75521 10.2145 4.85591 10.3134 4.95242C10.5035 5.14543 10.7063 5.32795 10.9142 5.49999C12.0195 6.41889 13.4155 7.00488 15 7.5Z" data-figma-gradient-fill="{&#34;type&#34;:&#34;GRADIENT_DIAMOND&#34;,&#34;stops&#34;:[{&#34;color&#34;:{&#34;r&#34;:1.0,&#34;g&#34;:0.96047061681747437,&#34;b&#34;:0.011764706112444401,&#34;a&#34;:1.0},&#34;position&#34;:0.029999971389770508},{&#34;color&#34;:{&#34;r&#34;:1.0,&#34;g&#34;:0.60470587015151978,&#34;b&#34;:0.011764706112444401,&#34;a&#34;:1.0},&#34;position&#34;:0.81999999284744263}],&#34;stopsVar&#34;:[{&#34;color&#34;:{&#34;r&#34;:1.0,&#34;g&#34;:0.96047061681747437,&#34;b&#34;:0.011764706112444401,&#34;a&#34;:1.0},&#34;position&#34;:0.029999971389770508},{&#34;color&#34;:{&#34;r&#34;:1.0,&#34;g&#34;:0.60470587015151978,&#34;b&#34;:0.011764706112444401,&#34;a&#34;:1.0},&#34;position&#34;:0.81999999284744263}],&#34;transform&#34;:{&#34;m00&#34;:3.3362533655850735e-12,&#34;m01&#34;:-50.001403808593750,&#34;m02&#34;:32.529434204101562,&#34;m10&#34;:48.679252624511719,&#34;m11&#34;:-2.4425914416092986e-11,&#34;m12&#34;:-23.914545059204102},&#34;opacity&#34;:1.0,&#34;blendMode&#34;:&#34;NORMAL&#34;,&#34;visible&#34;:true}"/>
</g>
<defs>
<filter id="filter0_i_0_10" x="0" y="0" width="15" height="15.1486" filterUnits="userSpaceOnUse" color-interpolation-filters="sRGB">
<feFlood flood-opacity="0" result="BackgroundImageFix"/>
<feBlend mode="normal" in="SourceGraphic" in2="BackgroundImageFix" result="shape"/>
<feColorMatrix in="SourceAlpha" type="matrix" values="0 0 0 0 0 0 0 0 0 0 0 0 0 0 0 0 0 0 127 0" result="hardAlpha"/>
<feOffset dy="0.145278"/>
<feGaussianBlur stdDeviation="0.217917"/>
<feComposite in2="hardAlpha" operator="arithmetic" k2="-1" k3="1"/>
<feColorMatrix type="matrix" values="0 0 0 0 1 0 0 0 0 1 0 0 0 0 0.0117647 0 0 0 1 0"/>
<feBlend mode="normal" in2="shape" result="effect1_innerShadow_0_10"/>
</filter>
<clipPath id="paint0_diamond_0_10_clip_path"><path d="M15 7.5C13.4181 7.99512 12.0221 8.64062 10.9142 9.55953C10.7063 9.73156 10.5035 9.91408 10.3134 10.1071C10.2145 10.2036 10.1233 10.3043 10.032 10.4071C9.3399 11.1854 8.75935 12.1358 8.28022 13.3296C8.05205 13.8981 7.80929 14.4587 7.5 15C7.18818 14.4566 6.88843 13.8981 6.66027 13.3296C6.18113 12.1358 5.59805 11.1854 4.90849 10.4071C4.81723 10.3043 4.72596 10.2036 4.62709 10.1071C4.43696 9.91408 4.23668 9.73156 4.02627 9.55953C2.92095 8.64062 1.58446 7.99512 0 7.5C1.58192 7.00488 2.91842 6.42099 4.02627 5.49999C4.23415 5.32795 4.43696 5.14543 4.62709 4.95242C4.72596 4.85591 4.81723 4.75521 4.90849 4.65241C5.60058 3.87407 6.18113 2.9237 6.66027 1.73206C6.88843 1.16352 7.18818 0.54337 7.5 0C7.80929 0.545468 8.05205 1.16352 8.28022 1.73206C8.75935 2.9258 9.34244 3.87617 10.032 4.65241C10.1233 4.75521 10.2145 4.85591 10.3134 4.95242C10.5035 5.14543 10.7063 5.32795 10.9142 5.49999C12.0195 6.41889 13.4155 7.00488 15 7.5Z"/></clipPath><linearGradient id="paint0_diamond_0_10" x1="0" y1="0" x2="500" y2="500" gradientUnits="userSpaceOnUse">
<stop offset="0.03" stop-color="#FFF503"/>
<stop offset="0.82" stop-color="#FF9A03"/>
</linearGradient>
</defs>
</svg>
